HIERARCHY
ROOT Hips
{
	OFFSET 0.000000 0.000000 0.000000 
	CHANNELS 6 Xposition Yposition Zposition Zrotation Yrotation Xrotation
	JOINT LeftUpLeg
	{
		OFFSET 1.363060 -1.794630 0.839290 
		CHANNELS 3 Zrotation Yrotation Xrotation
		JOINT LeftLeg
		{
			OFFSET 2.448110 -6.726130 0.000000 
			CHANNELS 3 Zrotation Yrotation Xrotation
			JOINT LeftFoot
			{
				OFFSET 2.562200 -7.039590 0.000000 
				CHANNELS 3 Zrotation Yrotation Xrotation
				JOINT LeftToeBase
				{
					OFFSET 0.157640 -0.433110 2.322550 
					CHANNELS 3 Zrotation Yrotation Xrotation
					End Site
					{
						OFFSET 0.000000 0.000000 0.000000 
					}
				}
			}
		}
	}
	JOINT RightUpLeg
	{
		OFFSET -1.305520 -1.794630 0.839290 
		CHANNELS 3 Zrotation Yrotation Xrotation
		JOINT RightLeg
		{
			OFFSET -2.542530 -6.985550 0.000000 
			CHANNELS 3 Zrotation Yrotation Xrotation
			JOINT RightFoot
			{
				OFFSET -2.568260 -7.056230 0.000000 
				CHANNELS 3 Zrotation Yrotation Xrotation
				JOINT RightToeBase
				{
					OFFSET -0.164730 -0.452590 2.363150 
					CHANNELS 3 Zrotation Yrotation Xrotation
					End Site
					{
						OFFSET 0.000000 0.000000 0.000000 
					}
				}
			}
		}
	}
	JOINT Spine
	{
		OFFSET 0.028270 2.035590 -0.193380 
		CHANNELS 3 Zrotation Yrotation Xrotation
		JOINT Spine1
		{
			OFFSET 0.056720 2.048850 -0.042750 
			CHANNELS 3 Zrotation Yrotation Xrotation
			JOINT Neck1
			{
				OFFSET -0.054170 1.746240 0.172020 
				CHANNELS 3 Zrotation Yrotation Xrotation
				JOINT Head
				{
					OFFSET 0.104070 1.761360 -0.123970 
					CHANNELS 3 Zrotation Yrotation Xrotation
					End Site
					{
						OFFSET 0.000000 0.000000 0.000000 
					}
				}
			}
			JOINT LeftArm
			{
				OFFSET 3.362410 1.200890 -0.311210 
				CHANNELS 3 Zrotation Yrotation Xrotation
				JOINT LeftForeArm
				{
					OFFSET 4.983000 -0.000000 -0.000000 
					CHANNELS 3 Zrotation Yrotation Xrotation
					JOINT LeftHand
					{
						OFFSET 3.483560 -0.000000 -0.000000 
						CHANNELS 3 Zrotation Yrotation Xrotation
						JOINT LeftHandIndex1
						{
							OFFSET 0.715260 -0.000000 -0.000000 
							CHANNELS 3 Zrotation Yrotation Xrotation
							End Site
							{
								OFFSET 0.000000 0.000000 0.000000 
							}
						}
					}
				}
			}
			JOINT RightArm
			{
				OFFSET -3.136600 1.374050 -0.404650 
				CHANNELS 3 Zrotation Yrotation Xrotation
				JOINT RightForeArm
				{
					OFFSET -5.241900 -0.000000 -0.000000 
					CHANNELS 3 Zrotation Yrotation Xrotation
					JOINT RightHand
					{
						OFFSET -3.444170 -0.000000 -0.000000 
						CHANNELS 3 Zrotation Yrotation Xrotation
						JOINT RightHandIndex1
						{
							OFFSET -0.622530 -0.000000 -0.000000 
							CHANNELS 3 Zrotation Yrotation Xrotation
							End Site
							{
								OFFSET 0.000000 0.000000 0.000000 
							}
						}
					}
				}
			}
		}
	}
}
MOTION
Frames: 13
Frame Time: 0.041667
9.487152 17.794337 50.347588 178.323765 13.193101 -179.600560 -19.042384 -13.908498 -7.140718 -2.359757 9.032164 25.489335 -5.233424 15.823105 -9.200909 1.247400 -7.081400 -19.956600 17.422341 14.461948 -12.184211 -0.089735 -11.463271 33.619136 2.097380 -8.991210 -6.719236 -0.295600 3.495900 -9.662500 -5.886086 -2.448111 6.940856 -3.995436 -1.208231 -7.215858 4.902209 6.890898 13.664569 -1.305500 4.247900 4.872000 -84.412922 9.105251 2.461964 25.252209 -26.067467 -7.012661 1.531492 1.159139 19.925317 -7.125000 0.000000 0.000000 85.542316 -12.249344 46.006561 -29.222828 33.064393 -10.750962 1.087059 0.906166 2.158796 7.125000 0.000000 0.000000 
9.479903 17.786731 50.336655 178.324698 13.466759 -179.773012 -19.122848 -13.612183 -7.104460 -2.335832 9.057317 25.594828 -5.260869 15.897664 -9.268759 1.531300 -7.812700 -22.146500 17.490632 14.733446 -12.005342 -0.154354 -11.533547 33.888159 2.052242 -8.908861 -6.978262 -0.259100 3.274900 -9.045200 -5.868686 -2.414319 7.247173 -3.994407 -1.202918 -6.916534 4.558192 6.966777 13.655893 -1.442400 4.273900 4.920400 -84.160610 8.583898 2.394291 25.118937 -25.979591 -6.998929 1.615105 1.138793 19.579421 -7.125000 0.000000 0.000000 85.444555 -12.005893 44.969907 -29.127254 32.981017 -10.703507 1.122666 0.884085 5.161793 7.125000 0.000000 0.000000 
9.471703 17.782096 50.331782 178.273891 13.728011 -179.940270 -19.243117 -13.224464 -7.145158 -2.310560 9.084461 25.691786 -5.278333 15.945089 -9.241140 1.605500 -7.991000 -22.686600 17.434596 14.508704 -12.083233 -0.226435 -11.598043 34.128497 1.876808 -8.440155 -6.758177 -0.206500 2.925500 -8.071500 -5.815431 -2.483511 7.220623 -3.896885 -1.230912 -7.020928 4.363334 7.071642 13.860095 -1.499800 4.339700 5.003100 -84.171353 8.458667 1.963049 24.922013 -25.776133 -6.898958 1.620624 1.149894 20.129868 -7.125000 0.000000 0.000000 85.311782 -11.993368 44.038443 -28.929511 32.790517 -10.579291 1.160362 0.832446 8.237151 7.125000 0.000000 0.000000 
9.462552 17.781146 50.330950 178.319722 13.952411 -179.900861 -19.212643 -12.931095 -7.358712 -2.283545 9.120406 25.778882 -5.333673 16.055287 -9.099670 1.731700 -8.283200 -23.577700 17.443705 14.326793 -12.330131 -0.277859 -11.668726 34.315298 1.779915 -8.167375 -6.503439 -0.188800 2.798700 -7.718700 -5.775731 -2.554600 7.148085 -3.894710 -1.271720 -7.028519 4.142290 7.174593 14.056172 -1.572600 4.404300 5.088700 -84.142721 8.382816 1.589143 24.789099 -25.641661 -6.832959 1.622983 1.160212 20.417263 -7.125000 0.000000 0.000000 85.280103 -11.951277 43.008685 -28.812469 32.690264 -10.525009 1.167355 0.807678 11.143129 7.125000 0.000000 0.000000 
9.451143 17.783047 50.328217 178.454805 14.140272 -179.829096 -19.113012 -12.790260 -7.494792 -2.264510 9.154397 25.870183 -5.396227 16.196213 -9.175915 1.789000 -8.411900 -23.972300 17.559554 14.285525 -12.494544 -0.320497 -11.734501 34.484904 1.717994 -7.978942 -6.228764 -0.160300 2.580000 -7.111500 -5.726856 -2.646779 7.003611 -3.999216 -1.329844 -7.073901 3.842037 7.276920 14.143970 -1.688800 4.462800 5.113700 -84.191158 8.613427 0.675595 23.736479 -24.558047 -6.457479 1.439949 1.467081 24.946685 -7.125000 0.000000 0.000000 85.212739 -11.929714 41.545984 -28.704527 32.562711 -10.418307 1.172864 0.718846 15.452347 7.125000 0.000000 0.000000 
9.439378 17.781383 50.329643 178.610855 14.267584 -179.817316 -18.997186 -12.649114 -7.583560 -2.245085 9.184213 25.962293 -5.412959 16.236643 -9.268404 1.789800 -8.413800 -23.978300 17.725985 14.234269 -12.635966 -0.363924 -11.804321 34.668624 1.737314 -8.004487 -6.025584 -0.182600 2.751900 -7.588900 -5.718890 -2.751580 6.904512 -4.108056 -1.399073 -7.175764 3.470248 7.348932 14.213279 -1.847600 4.506000 5.142900 -84.250120 8.671634 1.167214 25.197385 -26.049351 -6.971974 1.520298 1.172279 19.878001 -7.125000 0.000000 0.000000 85.176823 -11.769612 40.025215 -28.514927 32.339721 -10.224501 1.153210 0.642034 19.992948 7.125000 0.000000 0.000000 
9.429395 17.776867 50.335823 178.595198 14.353857 -179.766372 -18.998543 -12.431302 -7.768272 -2.239311 9.185125 25.954224 -5.337427 16.053884 -9.086446 1.762900 -8.353600 -23.793400 17.701647 14.214587 -12.898451 -0.417596 -11.892953 34.882697 1.743463 -8.020424 -5.990818 -0.242800 3.170800 -8.754700 -5.840706 -2.807223 6.914949 -4.201148 -1.437666 -7.125323 3.126394 7.369497 14.259046 -2.004500 4.517700 5.197400 -84.157847 8.709505 1.160422 25.278426 -26.134578 -6.996386 1.559814 1.120168 20.189672 -7.125000 0.000000 0.000000 85.273133 -11.701426 40.656505 -27.979392 31.710784 -9.721296 1.245651 0.534258 16.925837 7.125000 0.000000 0.000000 
9.420601 17.770094 50.327029 178.389643 14.567718 -179.878487 -19.265405 -12.140352 -7.807063 -2.224031 9.206325 26.035510 -5.241846 15.868601 -9.136499 1.737600 -8.296600 -23.618700 17.478529 14.239086 -12.964007 -0.490090 -11.957301 35.115188 1.513607 -7.426944 -5.921154 -0.179600 2.729600 -7.526800 -6.016118 -2.782366 7.057878 -4.264764 -1.427982 -6.927407 2.891402 7.425944 14.096445 -2.116200 4.528800 5.159800 -83.960533 8.554799 1.292360 25.231440 -26.074477 -6.942003 1.661495 1.004416 19.987997 -7.125000 0.000000 0.000000 85.422962 -11.571457 40.333035 -28.009520 31.770169 -9.785567 1.231497 0.577329 17.166462 7.125000 0.000000 0.000000 
9.412639 17.759160 50.296606 177.902747 14.934013 179.618021 -19.955386 -11.803345 -7.368141 -2.233128 9.190619 26.084722 -5.213975 15.903600 -9.650669 1.757100 -8.340800 -23.754000 17.027248 14.196295 -12.699672 -0.611287 -12.011527 35.452614 1.266496 -6.774614 -5.756139 -0.104100 2.080400 -5.727800 -6.258145 -2.753433 7.191393 -4.229684 -1.399696 -6.857661 2.770475 7.553354 14.006458 -2.169000 4.587800 5.117700 -83.957015 8.512547 1.087896 25.105196 -25.923786 -6.844332 1.701154 0.944869 19.904779 -7.125000 0.000000 0.000000 85.459748 -11.644537 40.221056 -28.069028 31.853153 -9.861425 1.219999 0.601856 17.432687 7.125000 0.000000 0.000000 
9.401943 17.752505 50.307658 178.145682 15.169455 179.657848 -19.694822 -11.617433 -7.495473 -2.235482 9.170325 26.027968 -5.210007 15.860938 -9.508209 1.674900 -8.153200 -23.180400 17.305535 14.353868 -12.869328 -0.675004 -12.125594 35.741911 1.306326 -6.848416 -5.561085 -0.097800 2.017100 -5.553000 -6.162436 -2.874421 7.040607 -4.291776 -1.470991 -7.074979 2.729242 7.722247 14.132723 -2.175100 4.685700 5.157100 -84.045638 8.543555 0.520664 25.032076 -25.853663 -6.792402 1.705947 0.933523 19.916351 -7.125000 0.000000 0.000000 85.435114 -11.595553 40.382563 -28.016362 31.768727 -9.772133 1.235146 0.560900 17.303940 7.125000 0.000000 0.000000 
9.396477 17.743830 50.298151 177.738711 15.195132 179.349207 -20.169156 -11.359741 -7.332811 -2.227555 9.164085 26.057783 -5.046426 15.530729 -9.493908 1.598500 -7.974300 -22.636000 16.933409 14.108521 -12.903177 -0.773053 -12.194711 36.031607 1.252133 -6.710017 -5.537210 -0.116400 2.200000 -6.058700 -6.347460 -3.024316 7.038766 -4.191784 -1.526461 -7.100739 2.709773 7.870537 14.211960 -2.179200 4.773300 5.171700 -84.141947 8.675244 0.080990 25.061459 -25.895292 -6.803716 1.695504 0.941446 19.842855 -7.125000 0.000000 0.000000 85.385364 -11.652140 40.568753 -28.078002 31.799504 -9.751886 1.242149 0.523351 16.912921 7.125000 0.000000 0.000000 
9.390891 17.736818 50.292208 177.696586 15.337722 179.209218 -20.259637 -11.095119 -7.321689 -2.206575 9.179536 26.137011 -4.993919 15.424982 -9.519580 1.626300 -8.039900 -22.835300 16.931514 13.986683 -12.978250 -0.841203 -12.270534 36.287368 1.176577 -6.534338 -5.673328 -0.113100 2.168500 -5.971700 -6.202790 -3.148668 7.026945 -4.051111 -1.579392 -7.155088 2.492883 8.063965 14.199877 -2.247800 4.863400 5.174500 -84.382435 8.744484 -0.357723 25.152490 -25.987707 -6.830365 1.658764 0.955437 19.721204 -7.125000 0.000000 0.000000 85.105964 -11.747972 40.755755 -28.250241 31.963051 -9.852366 1.238243 0.520543 16.788042 7.125000 0.000000 0.000000 
9.382929 17.727549 50.286861 177.720457 15.649993 179.102630 -20.284935 -10.850579 -7.281399 -2.215145 9.154667 26.095549 -5.046321 15.549182 -9.612648 1.638600 -8.068700 -22.923000 16.997846 13.968769 -13.072999 -0.914825 -12.360213 36.563984 1.138496 -6.414095 -5.514594 -0.078000 1.801300 -4.956700 -6.110157 -3.194685 7.056214 -4.020734 -1.605708 -7.159625 2.308880 8.240993 14.206409 -2.308200 4.945000 5.203200 -84.579178 8.879297 -0.584875 25.352248 -26.181469 -6.896011 1.624324 0.940300 19.477315 -7.125000 0.000000 0.000000 84.991633 -11.672790 40.709743 -28.273337 31.988373 -9.876542 1.238083 0.521683 17.014945 7.125000 0.000000 0.000000 
